<svg version="1.1" id="Layer_1" xmlns="http://www.w3.org/2000/svg" xmlns:xlink="http://www.w3.org/1999/xlink" x="0px" y="0px"
	 width="100%" viewBox="0 0 512 512" enable-background="new 0 0 512 512" xml:space="preserve">
<path fill="#070708" opacity="1.000000" stroke="none" 
	d="
M513.000000,429.000000 
	C513.000000,456.982025 513.000000,484.964081 513.000000,512.943787 
	C342.333313,512.941467 171.666656,512.941467 1.000000,512.941467 
	C1.000000,484.567719 1.000000,456.252533 1.439777,427.468689 
	C7.835692,426.666748 13.789120,426.167084 19.749104,426.070038 
	C22.752657,426.021118 25.774429,427.039398 28.776838,426.982971 
	C34.903866,426.867889 41.133511,425.467468 47.119617,426.212830 
	C55.657864,427.276001 63.999851,426.420135 72.459122,426.149475 
	C86.916962,425.686890 101.399887,426.004578 115.872276,426.000885 
	C131.698853,425.996826 147.526108,426.068726 163.351074,425.909485 
	C165.245697,425.890411 167.127853,424.631989 169.376984,423.986511 
	C177.749847,427.516693 185.648956,431.301849 193.800720,434.428192 
	C204.772385,438.636078 209.558716,435.532410 211.208282,424.027069 
	C215.193542,424.348206 218.806564,424.980591 222.413513,424.947601 
	C239.159897,424.794373 255.904037,424.300507 272.650085,424.242645 
	C283.028198,424.206757 293.408325,424.732635 303.848389,425.414368 
	C304.484650,434.359406 309.598999,438.243042 317.611084,435.434235 
	C325.835327,432.551117 333.781342,428.874359 341.988953,425.886169 
	C343.806610,427.753357 345.484436,429.279327 347.162292,430.805298 
	C355.450500,429.075806 363.635223,428.197418 371.827209,428.123901 
	C381.487976,428.037201 391.155640,428.911621 400.819092,428.886749 
	C412.428131,428.856842 424.035400,428.129517 435.644287,428.105988 
	C439.524109,428.098114 443.766907,430.671082 447.222321,429.745117 
	C459.163727,426.545197 471.012939,428.879242 482.894928,428.990295 
	C484.557343,429.005829 486.220917,428.886871 487.884155,428.836212 
	C496.258087,428.581146 504.638336,427.372955 513.000000,429.000000 
z"/>
<path fill="#181B1F" opacity="1.000000" stroke="none" 
	d="
M513.000000,64.000000 
	C513.000000,79.687561 513.000000,95.375122 512.535034,111.531342 
	C507.274933,111.789215 502.475983,111.334694 497.685333,111.409866 
	C477.036255,111.733856 456.391083,112.433685 435.741699,112.569382 
	C417.730865,112.687729 399.716461,112.202003 381.703033,112.125183 
	C380.783295,112.121262 379.857819,113.458633 378.617188,114.038834 
	C375.897217,111.925972 373.568115,109.848610 371.081970,107.980202 
	C333.884216,80.025032 292.195343,67.125481 245.579971,69.887962 
	C228.022873,70.928421 211.092377,74.244019 194.473816,79.828362 
	C179.034561,85.016449 164.825684,92.600517 150.863937,100.876579 
	C150.143951,101.152588 149.603394,101.662628 148.932007,102.479530 
	C147.554611,103.582390 146.308060,104.378395 145.038391,104.780777 
	C144.401886,100.758797 143.502579,98.986664 139.115799,101.338783 
	C136.581848,102.697449 132.796051,101.652672 129.582138,101.837196 
	C127.599144,101.951057 125.604950,102.217766 123.664490,102.639793 
	C120.993835,103.220642 117.916725,105.268280 115.800560,104.505287 
	C104.593178,100.464439 93.496796,98.682701 81.827431,102.437920 
	C79.503899,103.185638 76.033730,103.440483 74.246407,102.225227 
	C68.180824,98.101051 61.720165,100.772995 56.144104,101.758575 
	C52.202908,102.455193 49.099686,103.814873 45.662193,100.985695 
	C44.490395,102.555588 43.563255,103.797714 42.890648,104.698822 
	C40.545025,104.068680 38.580452,102.925461 36.823273,103.185204 
	C31.723169,103.939133 26.694822,105.431473 22.253046,101.306694 
	C21.980921,101.053978 21.295843,101.215034 20.804800,101.233650 
	C14.203003,101.483887 7.601543,101.743050 1.000000,102.000000 
	C1.000000,89.645775 1.000000,77.291542 1.467710,64.468658 
	C3.601081,64.000000 5.280786,63.860477 6.929743,64.026436 
	C11.664585,64.502991 16.389767,65.562820 21.113541,65.534195 
	C26.569643,65.501137 32.012444,64.192558 37.474766,64.074646 
	C48.891361,63.828197 60.317005,64.013336 71.738876,63.991783 
	C75.160416,63.985329 78.587273,63.729397 82.002113,63.852840 
	C89.903061,64.138451 97.796631,64.855820 105.696014,64.900795 
	C115.898560,64.958878 126.103073,64.432037 136.308273,64.351082 
	C142.540878,64.301643 148.778214,64.791901 155.010147,64.726791 
	C164.223770,64.630539 173.433197,64.120399 182.646759,64.032326 
	C195.899719,63.905647 209.186264,64.551903 222.397522,63.799030 
	C230.724640,63.324493 239.142365,66.276291 247.363297,63.074142 
	C247.911667,62.860550 248.666901,63.218910 249.328796,63.249905 
	C261.346832,63.812618 273.368866,64.880066 285.382812,64.796806 
	C302.057678,64.681252 318.723053,63.422916 335.399536,63.213680 
	C343.084991,63.117252 350.782410,64.420029 358.484955,64.928474 
	C360.434509,65.057167 362.422455,64.423920 364.396240,64.397438 
	C371.031769,64.308388 377.672455,64.196297 384.304016,64.368141 
	C388.468628,64.476067 392.621429,65.376190 396.777679,65.362328 
	C400.155914,65.351051 403.533936,64.098221 406.907562,64.119331 
	C414.292480,64.165543 421.676178,64.960464 429.057465,64.919861 
	C439.607208,64.861824 450.152679,64.138969 460.703094,64.043045 
	C478.134094,63.884567 495.567566,64.000000 513.000000,64.000000 
z"/>
<path fill="#1B1E22" opacity="1.000000" stroke="none" 
	d="
M1.000000,27.000000 
	C1.000000,18.340069 1.000000,9.680139 1.000000,1.040727 
	C171.666672,1.040727 342.333344,1.040727 513.000000,1.040727 
	C513.000000,9.075183 513.000000,17.068913 512.603821,25.540092 
	C508.664429,26.649967 505.121429,27.810722 501.577911,27.812426 
	C492.203369,27.816933 482.828857,27.098927 473.453796,27.086838 
	C464.828888,27.075716 456.202332,27.868843 447.578156,27.838589 
	C436.201050,27.798676 424.827118,27.170151 413.448944,27.034843 
	C400.704285,26.883284 387.955811,26.934608 375.210236,27.043228 
	C371.750580,27.072712 368.291779,27.930462 364.838745,27.889460 
	C349.299347,27.704950 333.763123,27.211834 318.223694,27.083279 
	C310.837891,27.022177 303.426849,27.999554 296.063293,27.678804 
	C280.524628,27.001951 265.014801,26.428143 249.495865,27.948822 
	C247.865570,28.108572 246.187714,27.785858 244.532104,27.683992 
	C241.064362,27.470631 237.592148,27.021538 234.129974,27.089031 
	C226.752640,27.232845 219.379318,27.912657 212.006577,27.879511 
	C202.379044,27.836235 192.755585,27.215639 183.126785,27.031094 
	C175.212173,26.879404 167.292313,27.001974 159.374786,27.002136 
	C145.462082,27.002419 131.549103,26.954456 117.636887,27.036963 
	C114.349808,27.056456 111.064194,27.746199 107.779846,27.730181 
	C92.078522,27.653608 76.378151,27.393597 60.676834,27.296419 
	C53.460278,27.251751 46.242393,27.483456 39.024994,27.492281 
	C33.224545,27.499374 27.423883,27.362076 21.623379,27.284279 
	C14.748884,27.192076 7.874456,27.094976 1.000000,27.000000 
z"/>
<path fill="#0B0C0D" opacity="1.000000" stroke="none" 
	d="
M513.000000,428.531342 
	C504.638336,427.372955 496.258087,428.581146 487.884155,428.836212 
	C486.220917,428.886871 484.557343,429.005829 482.894928,428.990295 
	C471.012939,428.879242 459.163727,426.545197 447.222321,429.745117 
	C443.766907,430.671082 439.524109,428.098114 435.644287,428.105988 
	C424.035400,428.129517 412.428131,428.856842 400.819092,428.886749 
	C391.155640,428.911621 381.487976,428.037201 371.827209,428.123901 
	C363.635223,428.197418 355.450500,429.075806 347.162292,430.805298 
	C345.484436,429.279327 343.806610,427.753357 342.226990,425.653351 
	C365.755890,413.058990 385.682343,396.723145 402.416168,376.420563 
	C414.768890,361.433441 424.019836,344.623352 432.210022,326.991364 
	C441.277557,327.253479 449.921082,327.506744 458.566467,327.625336 
	C465.894470,327.725891 473.226654,327.570496 480.553070,327.720642 
	C485.301666,327.817963 490.041992,328.470459 494.788116,328.496521 
	C500.857666,328.529877 506.929291,328.183014 513.000000,328.000000 
	C513.000000,361.354218 513.000000,394.708466 513.000000,428.531342 
z"/>
<path fill="#0B0C0D" opacity="1.000000" stroke="none" 
	d="
M169.015778,423.947998 
	C167.127853,424.631989 165.245697,425.890411 163.351074,425.909485 
	C147.526108,426.068726 131.698853,425.996826 115.872276,426.000885 
	C101.399887,426.004578 86.916962,425.686890 72.459122,426.149475 
	C63.999851,426.420135 55.657864,427.276001 47.119617,426.212830 
	C41.133511,425.467468 34.903866,426.867889 28.776838,426.982971 
	C25.774429,427.039398 22.752657,426.021118 19.749104,426.070038 
	C13.789120,426.167084 7.835692,426.666748 1.439777,427.000000 
	C1.000000,397.645782 1.000000,368.291534 1.385342,338.419739 
	C8.461629,337.644318 15.154298,337.135773 21.843153,337.181763 
	C34.985794,337.272095 48.125862,337.845032 61.267876,337.879242 
	C69.716805,337.901245 78.167313,337.318451 86.818497,337.315918 
	C98.480751,361.444183 113.745064,382.520538 134.139877,399.351990 
	C145.080078,408.380798 157.347336,415.801605 169.015778,423.947998 
z"/>
<path fill="#191C20" opacity="1.000000" stroke="none" 
	d="
M513.000000,63.532059 
	C495.567566,64.000000 478.134094,63.884567 460.703094,64.043045 
	C450.152679,64.138969 439.607208,64.861824 429.057465,64.919861 
	C421.676178,64.960464 414.292480,64.165543 406.907562,64.119331 
	C403.533936,64.098221 400.155914,65.351051 396.777679,65.362328 
	C392.621429,65.376190 388.468628,64.476067 384.304016,64.368141 
	C377.672455,64.196297 371.031769,64.308388 364.396240,64.397438 
	C362.422455,64.423920 360.434509,65.057167 358.484955,64.928474 
	C350.782410,64.420029 343.084991,63.117252 335.399536,63.213680 
	C318.723053,63.422916 302.057678,64.681252 285.382812,64.796806 
	C273.368866,64.880066 261.346832,63.812618 249.328796,63.249905 
	C248.666901,63.218910 247.911667,62.860550 247.363297,63.074142 
	C239.142365,66.276291 230.724640,63.324493 222.397522,63.799030 
	C209.186264,64.551903 195.899719,63.905647 182.646759,64.032326 
	C173.433197,64.120399 164.223770,64.630539 155.010147,64.726791 
	C148.778214,64.791901 142.540878,64.301643 136.308273,64.351082 
	C126.103073,64.432037 115.898560,64.958878 105.696014,64.900795 
	C97.796631,64.855820 89.903061,64.138451 82.002113,63.852840 
	C78.587273,63.729397 75.160416,63.985329 71.738876,63.991783 
	C60.317005,64.013336 48.891361,63.828197 37.474766,64.074646 
	C32.012444,64.192558 26.569643,65.501137 21.113541,65.534195 
	C16.389767,65.562820 11.664585,64.502991 6.929743,64.026436 
	C5.280786,63.860477 3.601081,64.000000 1.467710,64.000000 
	C1.000000,58.311958 1.000000,52.623920 1.404856,46.412548 
	C4.098399,45.601154 6.389089,45.055359 8.675400,45.073124 
	C15.678652,45.127525 22.683378,45.635597 29.681885,45.542583 
	C55.776886,45.195766 81.868317,44.545143 107.963837,44.288700 
	C119.339676,44.176907 130.721054,44.831936 142.101974,44.974514 
	C152.274811,45.101955 162.450500,45.004868 172.624924,45.004559 
	C187.651016,45.004105 202.677628,44.930336 217.702850,45.043808 
	C222.161819,45.077484 226.620468,45.944389 231.072937,45.892067 
	C242.062180,45.762936 253.046219,45.174706 264.035370,45.059593 
	C271.203064,44.984516 278.379517,45.670303 285.546051,45.572968 
	C311.639923,45.218567 337.729889,44.535572 363.824280,44.272392 
	C375.532684,44.154305 387.247009,44.820908 398.960693,44.973995 
	C408.800293,45.102589 418.642822,45.004105 428.484070,45.003910 
	C443.843353,45.003605 459.202637,44.991070 474.561920,45.005711 
	C479.811951,45.010712 485.064362,44.996021 490.311371,45.143314 
	C497.876312,45.355667 505.437317,45.707619 513.000000,46.000000 
	C513.000000,51.688042 513.000000,57.376080 513.000000,63.532059 
z"/>
<path fill="#15181B" opacity="1.000000" stroke="none" 
	d="
M378.934998,114.171509 
	C379.857819,113.458633 380.783295,112.121262 381.703033,112.125183 
	C399.716461,112.202003 417.730865,112.687729 435.741699,112.569382 
	C456.391083,112.433685 477.036255,111.733856 497.685333,111.409866 
	C502.475983,111.334694 507.274933,111.789215 512.535034,112.000000 
	C513.000000,144.020889 513.000000,176.041794 512.537659,208.531342 
	C506.965912,208.688309 501.853577,208.072769 496.747650,208.121750 
	C481.334747,208.269653 465.924561,208.686234 450.512878,208.973892 
	C446.611725,209.046738 442.708954,209.029510 438.570007,208.773712 
	C431.370148,182.710846 419.710938,159.253677 402.572205,138.775696 
	C395.290070,130.074692 386.849243,122.343460 378.934998,114.171509 
z"/>
<path fill="#1A1D21" opacity="1.000000" stroke="none" 
	d="
M513.000000,45.531597 
	C505.437317,45.707619 497.876312,45.355667 490.311371,45.143314 
	C485.064362,44.996021 479.811951,45.010712 474.561920,45.005711 
	C459.202637,44.991070 443.843353,45.003605 428.484070,45.003910 
	C418.642822,45.004105 408.800293,45.102589 398.960693,44.973995 
	C387.247009,44.820908 375.532684,44.154305 363.824280,44.272392 
	C337.729889,44.535572 311.639923,45.218567 285.546051,45.572968 
	C278.379517,45.670303 271.203064,44.984516 264.035370,45.059593 
	C253.046219,45.174706 242.062180,45.762936 231.072937,45.892067 
	C226.620468,45.944389 222.161819,45.077484 217.702850,45.043808 
	C202.677628,44.930336 187.651016,45.004105 172.624924,45.004559 
	C162.450500,45.004868 152.274811,45.101955 142.101974,44.974514 
	C130.721054,44.831936 119.339676,44.176907 107.963837,44.288700 
	C81.868317,44.545143 55.776886,45.195766 29.681885,45.542583 
	C22.683378,45.635597 15.678652,45.127525 8.675400,45.073124 
	C6.389089,45.055359 4.098399,45.601154 1.404856,45.944611 
	C1.000000,39.978848 1.000000,33.957695 1.000000,27.468273 
	C7.874456,27.094976 14.748884,27.192076 21.623379,27.284279 
	C27.423883,27.362076 33.224545,27.499374 39.024994,27.492281 
	C46.242393,27.483456 53.460278,27.251751 60.676834,27.296419 
	C76.378151,27.393597 92.078522,27.653608 107.779846,27.730181 
	C111.064194,27.746199 114.349808,27.056456 117.636887,27.036963 
	C131.549103,26.954456 145.462082,27.002419 159.374786,27.002136 
	C167.292313,27.001974 175.212173,26.879404 183.126785,27.031094 
	C192.755585,27.215639 202.379044,27.836235 212.006577,27.879511 
	C219.379318,27.912657 226.752640,27.232845 234.129974,27.089031 
	C237.592148,27.021538 241.064362,27.470631 244.532104,27.683992 
	C246.187714,27.785858 247.865570,28.108572 249.495865,27.948822 
	C265.014801,26.428143 280.524628,27.001951 296.063293,27.678804 
	C303.426849,27.999554 310.837891,27.022177 318.223694,27.083279 
	C333.763123,27.211834 349.299347,27.704950 364.838745,27.889460 
	C368.291779,27.930462 371.750580,27.072712 375.210236,27.043228 
	C387.955811,26.934608 400.704285,26.883284 413.448944,27.034843 
	C424.827118,27.170151 436.201050,27.798676 447.578156,27.838589 
	C456.202332,27.868843 464.828888,27.075716 473.453796,27.086838 
	C482.828857,27.098927 492.203369,27.816933 501.577911,27.812426 
	C505.121429,27.810722 508.664429,26.649967 512.603821,26.008774 
	C513.000000,32.354397 513.000000,38.708797 513.000000,45.531597 
z"/>
<path fill="#101213" opacity="1.000000" stroke="none" 
	d="
M438.806946,209.053665 
	C442.708954,209.029510 446.611725,209.046738 450.512878,208.973892 
	C465.924561,208.686234 481.334747,208.269653 496.747650,208.121750 
	C501.853577,208.072769 506.965912,208.688309 512.537659,209.000000 
	C513.000000,248.354233 513.000000,287.708466 513.000000,327.531342 
	C506.929291,328.183014 500.857666,328.529877 494.788116,328.496521 
	C490.041992,328.470459 485.301666,327.817963 480.553070,327.720642 
	C473.226654,327.570496 465.894470,327.725891 458.566467,327.625336 
	C449.921082,327.506744 441.277557,327.253479 432.249207,326.612488 
	C441.034241,302.108276 445.964355,277.201355 444.499664,251.482681 
	C443.690613,237.277679 440.773651,223.192734 438.806946,209.053665 
z"/>
<path fill="#16191C" opacity="1.000000" stroke="none" 
	d="
M1.000000,102.468658 
	C7.601543,101.743050 14.203003,101.483887 20.804800,101.233650 
	C21.295843,101.215034 21.980921,101.053978 22.253046,101.306694 
	C26.694822,105.431473 31.723169,103.939133 36.823273,103.185204 
	C38.580452,102.925461 40.545025,104.068680 42.890648,104.698822 
	C43.563255,103.797714 44.490395,102.555588 45.662193,100.985695 
	C49.099686,103.814873 52.202908,102.455193 56.144104,101.758575 
	C61.720165,100.772995 68.180824,98.101051 74.246407,102.225227 
	C76.033730,103.440483 79.503899,103.185638 81.827431,102.437920 
	C93.496796,98.682701 104.593178,100.464439 115.800560,104.505287 
	C117.916725,105.268280 120.993835,103.220642 123.664490,102.639793 
	C125.604950,102.217766 127.599144,101.951057 129.582138,101.837196 
	C132.796051,101.652672 136.581848,102.697449 139.115799,101.338783 
	C143.502579,98.986664 144.401886,100.758797 144.899719,105.091187 
	C144.296097,106.239349 143.832581,106.714485 143.316376,107.123047 
	C132.720032,115.509842 122.109055,123.889023 114.310768,135.160080 
	C106.222878,146.849716 98.192368,158.579041 89.907944,169.963501 
	C85.216705,169.003860 80.754303,167.854904 76.291855,167.854736 
	C68.655090,167.854477 61.022171,168.749802 53.379929,168.917191 
	C49.449604,169.003281 45.500053,168.035126 41.563824,168.069809 
	C35.796391,168.120621 30.031595,168.927307 24.268454,168.896225 
	C16.510918,168.854416 8.756027,168.321899 1.000000,168.000000 
	C1.000000,146.312439 1.000000,124.624878 1.000000,102.468658 
z"/>
<path fill="#121417" opacity="1.000000" stroke="none" 
	d="
M1.000000,168.468658 
	C8.756027,168.321899 16.510918,168.854416 24.268454,168.896225 
	C30.031595,168.927307 35.796391,168.120621 41.563824,168.069809 
	C45.500053,168.035126 49.449604,169.003281 53.379929,168.917191 
	C61.022171,168.749802 68.655090,167.854477 76.291855,167.854736 
	C80.754303,167.854904 85.216705,169.003860 89.869370,170.312851 
	C87.049393,177.878784 83.809975,184.678177 81.072800,191.674072 
	C73.491241,211.051529 70.369316,231.355988 68.601151,252.001251 
	C54.550617,253.049393 40.936176,255.617554 27.296217,252.096237 
	C26.371193,251.857437 25.255043,251.882812 24.339653,252.157761 
	C16.684486,254.457123 8.972305,255.809235 1.000000,254.000000 
	C1.000000,225.645767 1.000000,197.291550 1.000000,168.468658 
z"/>
<path fill="#0E1012" opacity="1.000000" stroke="none" 
	d="
M1.000000,254.468658 
	C8.972305,255.809235 16.684486,254.457123 24.339653,252.157761 
	C25.255043,251.882812 26.371193,251.857437 27.296217,252.096237 
	C40.936176,255.617554 54.550617,253.049393 68.685364,252.462753 
	C70.191452,266.758453 69.728043,280.902283 72.569000,294.347900 
	C75.645218,308.906982 81.803200,322.814880 86.617119,337.006775 
	C78.167313,337.318451 69.716805,337.901245 61.267876,337.879242 
	C48.125862,337.845032 34.985794,337.272095 21.843153,337.181763 
	C15.154298,337.135773 8.461629,337.644318 1.385342,337.951111 
	C1.000000,310.312439 1.000000,282.624878 1.000000,254.468658 
z"/>
<path fill="#FEFEFE" opacity="1.000000" stroke="none" 
	d="
M86.818497,337.315918 
	C81.803200,322.814880 75.645218,308.906982 72.569000,294.347900 
	C69.728043,280.902283 70.191452,266.758453 69.115280,252.460663 
	C70.369316,231.355988 73.491241,211.051529 81.072800,191.674072 
	C83.809975,184.678177 87.049393,177.878784 90.098190,170.640350 
	C98.192368,158.579041 106.222878,146.849716 114.310768,135.160080 
	C122.109055,123.889023 132.720032,115.509842 143.316376,107.123047 
	C143.832581,106.714485 144.296097,106.239349 144.922821,105.484802 
	C146.308060,104.378395 147.554611,103.582390 149.265701,102.459450 
	C150.167923,101.791878 150.605637,101.451241 151.043350,101.110611 
	C164.825684,92.600517 179.034561,85.016449 194.473816,79.828362 
	C211.092377,74.244019 228.022873,70.928421 245.579971,69.887962 
	C292.195343,67.125481 333.884216,80.025032 371.081970,107.980202 
	C373.568115,109.848610 375.897217,111.925972 378.617188,114.038826 
	C386.849243,122.343460 395.290070,130.074692 402.572205,138.775696 
	C419.710938,159.253677 431.370148,182.710846 438.570007,208.773712 
	C440.773651,223.192734 443.690613,237.277679 444.499664,251.482681 
	C445.964355,277.201355 441.034241,302.108276 431.826050,326.545227 
	C424.019836,344.623352 414.768890,361.433441 402.416168,376.420563 
	C385.682343,396.723145 365.755890,413.058990 342.087158,425.312134 
	C333.781342,428.874359 325.835327,432.551117 317.611084,435.434235 
	C309.598999,438.243042 304.484650,434.359406 303.948334,424.954742 
	C304.015167,407.271484 304.508087,390.437927 303.858246,373.648590 
	C303.569000,366.175751 301.462708,358.642426 299.239227,351.426788 
	C298.002197,347.412354 294.828369,343.994781 292.572144,340.379852 
	C297.655731,339.555054 302.619110,338.960876 307.487091,337.920441 
	C322.192688,334.777557 336.405914,330.407471 348.486908,320.263672 
	C350.073486,319.060791 351.397644,318.045593 352.591522,316.895172 
	C371.611237,298.568298 376.787781,275.206573 376.966492,249.545532 
	C377.522980,230.315048 371.934082,213.642227 359.868225,199.167328 
	C358.993622,198.118073 358.692627,196.590683 358.421051,195.034302 
	C362.624573,182.370621 362.629089,169.894547 359.326660,157.364899 
	C356.217712,145.569397 355.310974,145.067108 343.292542,147.715836 
	C330.226990,150.595322 318.932983,157.234879 307.635773,163.996231 
	C305.671387,165.171936 302.639069,165.649323 300.408783,165.128052 
	C275.927856,159.405991 251.174332,157.507538 226.635071,163.101944 
	C214.865952,165.785049 205.675400,164.321808 195.755585,157.627777 
	C186.145996,151.143082 175.026917,146.960144 163.005447,146.861115 
	C161.384659,146.847748 158.715118,147.907486 158.282715,149.103546 
	C153.091400,163.462921 150.939377,178.071716 156.002853,193.435059 
	C157.608719,196.635864 155.748306,198.343460 154.197388,200.296432 
	C142.404922,215.145844 136.825226,231.990417 138.036011,251.454086 
	C138.988678,260.776978 139.280243,269.814667 141.220886,278.483246 
	C145.076492,295.705780 152.977600,310.752869 168.074677,321.517395 
	C184.235321,333.626984 202.887650,337.802979 222.672104,340.378052 
	C216.456635,347.273468 212.954666,354.971008 211.441299,363.647919 
	C211.243362,364.782898 209.808121,366.147095 208.634949,366.600647 
	C188.907089,374.227570 169.895386,371.097260 157.289032,351.300385 
	C155.155060,347.949219 152.839966,344.624298 150.114136,341.757324 
	C144.126572,335.459717 137.188583,330.541870 127.983887,330.956299 
	C125.061691,331.087860 122.200966,332.584717 119.312119,333.456818 
	C121.113243,336.026794 122.355515,339.516083 124.811394,341.008942 
	C135.970047,347.792236 142.206039,358.311707 146.979950,369.714813 
	C152.023849,381.762848 160.569611,388.999359 173.040863,392.133209 
	C185.260315,395.203705 197.450775,394.010101 210.833252,391.862762 
	C210.833252,402.830444 210.833252,413.431152 210.833252,424.031860 
	C209.558716,435.532410 204.772385,438.636078 193.800720,434.428192 
	C185.648956,431.301849 177.749847,427.516693 169.376984,423.986511 
	C157.347336,415.801605 145.080078,408.380798 134.139877,399.351990 
	C113.745064,382.520538 98.480751,361.444183 86.818497,337.315918 
z"/>
<path fill="#0C0D0E" opacity="1.000000" stroke="none" 
	d="
M348.163879,320.388428 
	C336.405914,330.407471 322.192688,334.777557 307.487091,337.920441 
	C302.619110,338.960876 297.655731,339.555054 292.572144,340.379852 
	C294.828369,343.994781 298.002197,347.412354 299.239227,351.426788 
	C301.462708,358.642426 303.569000,366.175751 303.858246,373.648590 
	C304.508087,390.437927 304.015167,407.271484 303.887512,424.546692 
	C293.408325,424.732635 283.028198,424.206757 272.650085,424.242645 
	C255.904037,424.300507 239.159897,424.794373 222.413513,424.947601 
	C218.806564,424.980591 215.193542,424.348206 211.208282,424.027069 
	C210.833252,413.431152 210.833252,402.830444 210.833252,391.862762 
	C197.450775,394.010101 185.260315,395.203705 173.040863,392.133209 
	C160.569611,388.999359 152.023849,381.762848 146.979950,369.714813 
	C142.206039,358.311707 135.970047,347.792236 124.811394,341.008942 
	C122.355515,339.516083 121.113243,336.026794 119.312119,333.456818 
	C122.200966,332.584717 125.061691,331.087860 127.983887,330.956299 
	C137.188583,330.541870 144.126572,335.459717 150.114136,341.757324 
	C152.839966,344.624298 155.155060,347.949219 157.289032,351.300385 
	C169.895386,371.097260 188.907089,374.227570 208.634949,366.600647 
	C209.808121,366.147095 211.243362,364.782898 211.441299,363.647919 
	C212.954666,354.971008 216.456635,347.273468 222.672104,340.378052 
	C202.887650,337.802979 184.235321,333.626984 168.178864,321.110535 
	C169.752502,319.942322 171.380783,319.082794 173.019058,319.063263 
	C183.449860,318.938995 193.884323,319.102966 204.314575,318.956970 
	C209.603058,318.882965 214.890686,318.034790 220.168945,318.122620 
	C226.695236,318.231201 233.206039,319.117676 239.734421,319.324707 
	C242.600357,319.415619 245.505524,318.266174 248.371597,318.356384 
	C257.981720,318.658783 267.577942,319.422089 277.188385,319.690033 
	C281.915009,319.821808 286.660187,319.059052 291.398682,319.034943 
	C308.653442,318.947144 325.909149,318.962158 343.163818,319.060638 
	C344.832947,319.070129 346.497314,319.925659 348.163879,320.388428 
z"/>
<path fill="#16191C" opacity="1.000000" stroke="none" 
	d="
M150.863937,100.876572 
	C150.605637,101.451241 150.167923,101.791878 149.396530,102.152588 
	C149.603394,101.662628 150.143951,101.152588 150.863937,100.876572 
z"/>
<path fill="#0F1113" opacity="1.000000" stroke="none" 
	d="
M348.486908,320.263672 
	C346.497314,319.925659 344.832947,319.070129 343.163818,319.060638 
	C325.909149,318.962158 308.653442,318.947144 291.398682,319.034943 
	C286.660187,319.059052 281.915009,319.821808 277.188385,319.690033 
	C267.577942,319.422089 257.981720,318.658783 248.371597,318.356384 
	C245.505524,318.266174 242.600357,319.415619 239.734421,319.324707 
	C233.206039,319.117676 226.695236,318.231201 220.168945,318.122620 
	C214.890686,318.034790 209.603058,318.882965 204.314575,318.956970 
	C193.884323,319.102966 183.449860,318.938995 173.019058,319.063263 
	C171.380783,319.082794 169.752502,319.942322 168.015411,320.820312 
	C152.977600,310.752869 145.076492,295.705780 141.220886,278.483246 
	C139.280243,269.814667 138.988678,260.776978 138.477890,251.453506 
	C148.197693,250.667313 157.391541,250.055099 166.584183,250.072800 
	C177.395020,250.093613 188.203308,250.828461 199.015625,250.923538 
	C204.794144,250.974335 210.589722,249.934052 216.358078,250.093323 
	C224.904022,250.329285 233.438202,251.751663 241.967331,251.666107 
	C256.564178,251.519699 271.149963,250.490891 285.746857,250.042679 
	C293.571442,249.802414 301.409485,250.000000 309.241455,250.000000 
	C323.799438,250.000000 338.357391,249.999771 352.915375,250.000092 
	C360.903229,250.000259 368.891113,250.001343 376.878967,250.001999 
	C376.787781,275.206573 371.611237,298.568298 352.591522,316.895172 
	C351.397644,318.045593 350.073486,319.060791 348.486908,320.263672 
z"/>
<path fill="#121416" opacity="1.000000" stroke="none" 
	d="
M376.966492,249.545532 
	C368.891113,250.001343 360.903229,250.000259 352.915375,250.000092 
	C338.357391,249.999771 323.799438,250.000000 309.241455,250.000000 
	C301.409485,250.000000 293.571442,249.802414 285.746857,250.042679 
	C271.149963,250.490891 256.564178,251.519699 241.967331,251.666107 
	C233.438202,251.751663 224.904022,250.329285 216.358078,250.093323 
	C210.589722,249.934052 204.794144,250.974335 199.015625,250.923538 
	C188.203308,250.828461 177.395020,250.093613 166.584183,250.072800 
	C157.391541,250.055099 148.197693,250.667313 138.562500,251.001404 
	C136.825226,231.990417 142.404922,215.145844 154.197388,200.296432 
	C155.748306,198.343460 157.608719,196.635864 156.413528,193.435089 
	C161.399017,193.211746 165.614731,194.055206 170.582703,192.886292 
	C176.486542,191.497192 183.291061,193.952606 189.709381,194.707275 
	C190.338058,194.781189 191.296371,194.866364 191.593353,194.515762 
	C194.918640,190.589951 197.445923,192.481262 199.607574,195.765427 
	C201.258209,194.429520 202.653030,192.344299 204.012589,192.367004 
	C209.689911,192.461960 215.358749,193.168060 221.025421,193.705780 
	C222.106827,193.808395 223.154678,194.299393 224.234680,194.375854 
	C227.736206,194.623840 231.245514,194.762405 234.751831,194.943115 
	C238.926117,193.821289 243.299637,193.297821 247.666412,192.723114 
	C253.379639,191.971222 258.725555,195.126083 264.850891,193.337494 
	C269.155823,192.080460 274.698151,192.981567 279.057404,194.608536 
	C282.970551,196.068970 286.077728,196.402588 289.768341,194.782425 
	C291.784576,193.897278 294.071533,193.124786 296.226776,193.149277 
	C304.602234,193.244400 312.973114,193.701782 321.347809,193.956772 
	C322.312683,193.986145 323.287292,193.442551 324.262878,193.421616 
	C327.579926,193.350403 330.899414,193.394379 334.217987,193.394379 
	C336.014099,193.708832 337.780518,192.399277 339.628845,192.271149 
	C342.241821,192.090012 344.934875,192.669601 347.558136,193.127594 
	C351.098083,193.745621 354.604279,194.557129 358.124939,195.285614 
	C358.692627,196.590683 358.993622,198.118073 359.868225,199.167328 
	C371.934082,213.642227 377.522980,230.315048 376.966492,249.545532 
z"/>
<path fill="#15171A" opacity="1.000000" stroke="none" 
	d="
M358.421051,195.034302 
	C354.604279,194.557129 351.098083,193.745621 347.558136,193.127594 
	C344.934875,192.669601 342.241821,192.090012 339.628845,192.271149 
	C337.780518,192.399277 336.014099,193.708832 334.217987,193.394379 
	C330.899414,193.394379 327.579926,193.350403 324.262878,193.421616 
	C323.287292,193.442551 322.312683,193.986145 321.347809,193.956772 
	C312.973114,193.701782 304.602234,193.244400 296.226776,193.149277 
	C294.071533,193.124786 291.784576,193.897278 289.768341,194.782425 
	C286.077728,196.402588 282.970551,196.068970 279.057404,194.608536 
	C274.698151,192.981567 269.155823,192.080460 264.850891,193.337494 
	C258.725555,195.126083 253.379639,191.971222 247.666412,192.723114 
	C243.299637,193.297821 238.926117,193.821289 234.751831,194.943115 
	C231.245514,194.762405 227.736206,194.623840 224.234680,194.375854 
	C223.154678,194.299393 222.106827,193.808395 221.025421,193.705780 
	C215.358749,193.168060 209.689911,192.461960 204.012589,192.367004 
	C202.653030,192.344299 201.258209,194.429520 199.607574,195.765427 
	C197.445923,192.481262 194.918640,190.589951 191.593353,194.515762 
	C191.296371,194.866364 190.338058,194.781189 189.709381,194.707275 
	C183.291061,193.952606 176.486542,191.497192 170.582703,192.886292 
	C165.614731,194.055206 161.399017,193.211746 156.427734,193.000168 
	C150.939377,178.071716 153.091400,163.462921 158.282715,149.103546 
	C158.715118,147.907486 161.384659,146.847748 163.005447,146.861115 
	C175.026917,146.960144 186.145996,151.143082 195.755585,157.627777 
	C205.675400,164.321808 214.865952,165.785049 226.635071,163.101944 
	C251.174332,157.507538 275.927856,159.405991 300.408783,165.128052 
	C302.639069,165.649323 305.671387,165.171936 307.635773,163.996231 
	C318.932983,157.234879 330.226990,150.595322 343.292542,147.715836 
	C355.310974,145.067108 356.217712,145.569397 359.326660,157.364899 
	C362.629089,169.894547 362.624573,182.370621 358.421051,195.034302 
z"/>
</svg>