<svg version="1.1" id="Layer_1" xmlns="http://www.w3.org/2000/svg" xmlns:xlink="http://www.w3.org/1999/xlink" x="0px" y="0px"
	 width="100%" viewBox="0 0 225 225" enable-background="new 0 0 225 225" xml:space="preserve">
<path fill="#FBFCFD" opacity="1.000000" stroke="none" 
	d="
M226.000000,77.000000 
	C226.000000,127.000000 226.000000,176.500000 226.000000,226.000000 
	C151.000000,226.000000 76.000000,226.000000 1.000000,226.000000 
	C1.000000,151.000000 1.000000,76.000000 1.000000,1.000000 
	C76.000000,1.000000 151.000000,1.000000 226.000000,1.000000 
	C226.000000,26.166666 226.000000,51.333332 226.000000,77.000000 
M211.921570,25.315674 
	C210.157852,19.896158 206.724518,16.276272 200.056976,14.952098 
	C199.060913,14.913542 198.064865,14.841344 197.068802,14.841245 
	C141.545273,14.835745 86.021744,14.833777 30.498217,14.849597 
	C29.010971,14.850021 27.523781,15.049613 25.326138,15.101370 
	C20.066875,17.004501 16.088863,20.102407 14.920563,26.936859 
	C14.895249,84.125458 14.868699,141.314056 14.856908,198.502655 
	C14.856738,199.324417 15.041117,200.146225 15.078429,201.684296 
	C16.842142,207.103867 20.275520,210.723770 26.943085,212.047913 
	C27.939114,212.086456 28.935137,212.158646 29.931170,212.158752 
	C85.454674,212.164261 140.978180,212.166199 196.501678,212.150391 
	C197.988922,212.149963 199.476120,211.950409 201.673767,211.898651 
	C206.933121,209.995544 210.911148,206.897583 212.079453,200.063095 
	C212.104767,142.874496 212.131302,85.685890 212.143082,28.497288 
	C212.143250,27.675524 211.958908,26.853725 211.921570,25.315674 
z"/>
<path fill="#00669C" opacity="1.000000" stroke="none" 
	d="
M26.028564,211.843369 
	C20.275520,210.723770 16.842142,207.103867 15.375006,201.011612 
	C15.781067,199.356598 15.986092,198.374283 15.986363,197.391922 
	C16.001747,141.686264 16.006439,85.980591 15.964113,30.274963 
	C15.963036,28.858067 15.426612,27.441574 15.139860,26.024893 
	C16.088863,20.102407 20.066875,17.004501 25.997974,15.391381 
	C27.652782,15.787625 28.635731,15.986559 29.618732,15.986823 
	C85.317207,16.001738 141.015686,16.006350 196.714142,15.964818 
	C198.133469,15.963759 199.552414,15.437807 200.971527,15.156652 
	C206.724518,16.276272 210.157852,19.896158 211.625015,25.988361 
	C211.218994,27.643383 211.013977,28.625690 211.013718,29.608057 
	C210.998337,85.313721 210.993652,141.019379 211.035950,196.725021 
	C211.037033,198.141907 211.573425,199.558380 211.860168,200.975052 
	C210.911148,206.897583 206.933121,209.995544 201.001953,211.608612 
	C199.347183,211.212402 198.364243,211.013550 197.381241,211.013275 
	C141.682785,210.998383 85.984337,210.993759 30.285921,211.035278 
	C28.866602,211.036346 27.447674,211.562241 26.028564,211.843369 
M91.014809,91.013344 
	C91.014809,91.013344 91.124496,91.017548 90.475815,91.558090 
	C90.318085,92.360832 90.023209,93.163445 90.022484,93.966324 
	C89.997620,121.428139 89.986801,148.889999 90.045715,176.351715 
	C90.048317,177.560364 90.725075,178.767593 92.012505,180.034058 
	C100.315491,180.037384 108.620575,180.135254 116.919426,179.951736 
	C118.316849,179.920853 119.687378,178.674469 121.631325,177.377365 
	C121.717850,160.683502 121.809799,143.989639 121.859947,127.295670 
	C121.861214,126.873680 121.402351,126.450310 121.082306,125.305084 
	C124.544022,115.831871 130.182617,111.824524 138.864899,112.666969 
	C146.313431,113.389717 150.792633,117.907112 151.315262,128.129028 
	C152.105225,143.579727 151.718964,159.090622 151.828949,174.575974 
	C151.841354,176.322754 151.830627,178.069687 151.830627,179.719147 
	C162.113754,179.719147 171.681442,179.719147 180.904816,179.719147 
	C180.904816,159.439880 181.736740,139.441132 180.619202,119.551888 
	C179.843979,105.754860 172.651642,94.648140 158.447739,90.577957 
	C144.433853,86.562202 131.705338,88.832214 122.219582,101.215569 
	C122.001701,101.500000 121.463226,101.538864 121.293785,101.605705 
	C120.846230,97.950386 120.413292,94.414429 119.353477,90.339211 
	C111.265999,90.226082 103.178551,90.058807 95.090996,90.052788 
	C93.733124,90.051773 92.374733,90.748672 91.014809,91.013344 
M44.615162,91.332520 
	C44.698116,92.214371 44.781071,93.096230 45.021553,94.906487 
	C44.967896,122.943108 44.914238,150.979736 44.576912,179.248337 
	C44.755154,179.486542 44.933395,179.724731 46.033417,180.020477 
	C55.641674,180.000336 65.249931,179.980194 75.514030,179.436996 
	C75.672195,178.801529 75.968094,178.166183 75.968704,177.530563 
	C75.995239,149.886810 76.010460,122.243019 75.948235,94.599396 
	C75.945564,93.416771 75.197525,92.235825 73.885048,91.033455 
	C64.309151,91.037201 54.733257,91.040939 44.615162,91.332520 
M65.408966,78.249626 
	C74.779861,74.782944 78.873894,67.020424 75.889984,58.376999 
	C72.931168,49.806263 62.655693,45.680687 53.104214,49.228577 
	C45.349854,52.108921 41.350288,60.843021 44.132248,68.821236 
	C46.809109,76.498039 54.153015,79.977654 65.408966,78.249626 
z"/>
<path fill="#005D96" opacity="1.000000" stroke="none" 
	d="
M200.514252,15.054375 
	C199.552414,15.437807 198.133469,15.963759 196.714142,15.964818 
	C141.015686,16.006350 85.317207,16.001738 29.618732,15.986823 
	C28.635731,15.986559 27.652782,15.787625 26.353188,15.418859 
	C27.523781,15.049613 29.010971,14.850021 30.498217,14.849597 
	C86.021744,14.833777 141.545273,14.835745 197.068802,14.841245 
	C198.064865,14.841344 199.060913,14.913542 200.514252,15.054375 
z"/>
<path fill="#005D96" opacity="1.000000" stroke="none" 
	d="
M15.030211,26.480877 
	C15.426612,27.441574 15.963036,28.858067 15.964113,30.274963 
	C16.006439,85.980591 16.001747,141.686264 15.986363,197.391922 
	C15.986092,198.374283 15.781067,199.356598 15.405474,200.653473 
	C15.041117,200.146225 14.856738,199.324417 14.856908,198.502655 
	C14.868699,141.314056 14.895249,84.125458 15.030211,26.480877 
z"/>
<path fill="#005D96" opacity="1.000000" stroke="none" 
	d="
M211.969803,200.519073 
	C211.573425,199.558380 211.037033,198.141907 211.035950,196.725021 
	C210.993652,141.019379 210.998337,85.313721 211.013718,29.608057 
	C211.013977,28.625690 211.218994,27.643383 211.594559,26.346497 
	C211.958908,26.853725 212.143250,27.675524 212.143082,28.497288 
	C212.131302,85.685890 212.104767,142.874496 211.969803,200.519073 
z"/>
<path fill="#005D96" opacity="1.000000" stroke="none" 
	d="
M26.485825,211.945648 
	C27.447674,211.562241 28.866602,211.036346 30.285921,211.035278 
	C85.984337,210.993759 141.682785,210.998383 197.381241,211.013275 
	C198.364243,211.013550 199.347183,211.212402 200.646744,211.581146 
	C199.476120,211.950409 197.988922,212.149963 196.501678,212.150391 
	C140.978180,212.166199 85.454674,212.164261 29.931170,212.158752 
	C28.935137,212.158646 27.939114,212.086456 26.485825,211.945648 
z"/>
<path fill="#FCFDFE" opacity="1.000000" stroke="none" 
	d="
M119.980354,90.878479 
	C120.413292,94.414429 120.846230,97.950386 121.293785,101.605705 
	C121.463226,101.538864 122.001701,101.500000 122.219582,101.215569 
	C131.705338,88.832214 144.433853,86.562202 158.447739,90.577957 
	C172.651642,94.648140 179.843979,105.754860 180.619202,119.551888 
	C181.736740,139.441132 180.904816,159.439880 180.904816,179.719147 
	C171.681442,179.719147 162.113754,179.719147 151.830627,179.719147 
	C151.830627,178.069687 151.841354,176.322754 151.828949,174.575974 
	C151.718964,159.090622 152.105225,143.579727 151.315262,128.129028 
	C150.792633,117.907112 146.313431,113.389717 138.864899,112.666969 
	C130.182617,111.824524 124.544022,115.831871 121.028503,126.125427 
	C121.006577,143.960403 121.038460,160.975052 121.070335,177.989685 
	C119.687378,178.674469 118.316849,179.920853 116.919426,179.951736 
	C108.620575,180.135254 100.315491,180.037384 91.510605,179.539276 
	C91.047295,149.702179 91.085899,120.359863 91.124496,91.017548 
	C91.124496,91.017548 91.014809,91.013344 91.482208,91.013329 
	C101.293190,90.968369 110.636772,90.923424 119.980354,90.878479 
z"/>
<path fill="#FDFEFE" opacity="1.000000" stroke="none" 
	d="
M74.858192,179.960052 
	C65.249931,179.980194 55.641674,180.000336 45.525238,179.750977 
	C45.017059,179.481476 44.860584,179.016357 44.860584,179.016357 
	C44.914238,150.979736 44.967896,122.943108 45.017048,94.080170 
	C45.060814,92.517456 45.109089,91.781075 45.157364,91.044678 
	C54.733257,91.040939 64.309151,91.037201 74.392853,91.506363 
	C74.886505,121.306190 74.872345,150.633118 74.858192,179.960052 
z"/>
<path fill="#FBFCFD" opacity="1.000000" stroke="none" 
	d="
M65.022369,78.392822 
	C54.153015,79.977654 46.809109,76.498039 44.132248,68.821236 
	C41.350288,60.843021 45.349854,52.108921 53.104214,49.228577 
	C62.655693,45.680687 72.931168,49.806263 75.889984,58.376999 
	C78.873894,67.020424 74.779861,74.782944 65.022369,78.392822 
z"/>
<path fill="#005995" opacity="1.000000" stroke="none" 
	d="
M75.186111,179.698517 
	C74.872345,150.633118 74.886505,121.306190 74.848694,91.516678 
	C75.197525,92.235825 75.945564,93.416771 75.948235,94.599396 
	C76.010460,122.243019 75.995239,149.886810 75.968704,177.530563 
	C75.968094,178.166183 75.672195,178.801529 75.186111,179.698517 
z"/>
<path fill="#005995" opacity="1.000000" stroke="none" 
	d="
M90.800156,91.287819 
	C91.085899,120.359863 91.047295,149.702179 91.048248,179.509979 
	C90.725075,178.767593 90.048317,177.560364 90.045715,176.351715 
	C89.986801,148.889999 89.997620,121.428139 90.022484,93.966324 
	C90.023209,93.163445 90.318085,92.360832 90.800156,91.287819 
z"/>
<path fill="#005C96" opacity="1.000000" stroke="none" 
	d="
M121.350830,177.683533 
	C121.038460,160.975052 121.006577,143.960403 121.066383,126.486679 
	C121.402351,126.450310 121.861214,126.873680 121.859947,127.295670 
	C121.809799,143.989639 121.717850,160.683502 121.350830,177.683533 
z"/>
<path fill="#005794" opacity="1.000000" stroke="none" 
	d="
M119.666916,90.608841 
	C110.636772,90.923424 101.293190,90.968369 91.483093,91.068207 
	C92.374733,90.748672 93.733124,90.051773 95.090996,90.052788 
	C103.178551,90.058807 111.265999,90.226082 119.666916,90.608841 
z"/>
<path fill="#005D96" opacity="1.000000" stroke="none" 
	d="
M44.886261,91.188599 
	C45.109089,91.781075 45.060814,92.517456 44.938286,93.615967 
	C44.781071,93.096230 44.698116,92.214371 44.886261,91.188599 
z"/>
<path fill="#005D96" opacity="1.000000" stroke="none" 
	d="
M44.718750,179.132355 
	C44.860584,179.016357 45.017059,179.481476 45.064346,179.722198 
	C44.933395,179.724731 44.755154,179.486542 44.718750,179.132355 
z"/>
</svg>